<svg width="19" height="20" viewBox="0 0 19 20" fill="none" xmlns="http://www.w3.org/2000/svg">
<path d="M10.277 19.0678C10.2684 19.0768 10.2635 19.089 10.2635 19.1017V13.0802L9.14773 13.1257C9.14773 13.0978 9.13472 13.0839 9.10872 13.0839L8.26713 13.0802C8.24586 13.0802 8.23522 13.0908 8.23522 13.1121L8.23404 19.0046C8.23404 19.0176 8.22905 19.0301 8.22019 19.0394C8.21132 19.0486 8.1993 19.0538 8.18676 19.0538H5.68327C5.6783 19.0537 5.67343 19.0523 5.66911 19.0497C5.6648 19.0471 5.66118 19.0435 5.65859 19.0391C5.65599 19.0347 5.65451 19.0296 5.65428 19.0245C5.65405 19.0193 5.65508 19.0142 5.65727 19.0095C6.17656 17.9748 6.32667 16.841 6.10761 15.608C6.09737 15.5498 6.07018 15.5396 6.02605 15.5773C5.69745 15.8591 5.35388 16.0856 4.99534 16.2568C3.5923 16.929 1.88076 16.2605 1.21411 14.8461C0.484813 13.2989 1.11128 11.506 2.59587 10.7699C2.76293 10.6872 2.92447 10.6097 3.0805 10.5377C3.12541 10.5163 3.13132 10.4869 3.09823 10.4492C3.04931 10.3938 2.99869 10.3388 2.94784 10.2836C2.81928 10.1439 2.68926 10.0027 2.58169 9.84948C1.88352 8.85163 1.75074 7.80545 2.18335 6.71093C2.73653 5.31124 4.18567 4.55056 5.6289 4.87499C5.90233 4.93725 6.17459 5.01918 6.44566 5.12076C6.45274 5.12337 6.46035 5.12404 6.46776 5.1227C6.47516 5.12136 6.4821 5.11807 6.48792 5.11313C6.49374 5.10819 6.49824 5.10177 6.50099 5.0945C6.50373 5.08723 6.50462 5.07934 6.50358 5.07161C6.42202 4.51616 6.34874 3.94596 6.47048 3.38559C6.883 1.47223 8.77658 0.535825 10.5177 1.12323C11.6323 1.49926 12.5235 2.67284 12.5354 3.90909C12.5385 4.27284 12.5133 4.64027 12.4597 5.01139C12.4582 5.02254 12.4595 5.03392 12.4633 5.04444C12.4671 5.05496 12.4734 5.06429 12.4816 5.07154C12.4897 5.0788 12.4995 5.08374 12.5099 5.0859C12.5204 5.08806 12.5312 5.08737 12.5413 5.0839C12.7911 4.99951 13.0405 4.92701 13.2895 4.86639C16.0211 4.20033 18.0683 7.36469 16.4289 9.75363C16.3176 9.91524 16.1879 10.0621 16.0577 10.2095L16.0576 10.2095C15.9928 10.2829 15.9279 10.3564 15.8651 10.432C15.8296 10.4746 15.8367 10.5065 15.8863 10.5278C16.6097 10.8461 17.1924 11.1754 17.6203 11.8624C18.6463 13.5103 17.9147 15.726 16.1298 16.3478C14.8615 16.7902 13.8261 16.3244 12.8616 15.4114C12.819 15.3712 12.7918 15.3802 12.78 15.4384C12.516 16.7951 12.6539 17.9724 13.1937 18.9702C13.1983 18.9788 13.2006 18.9885 13.2006 18.9983C13.2005 19.0082 13.198 19.0178 13.1933 19.0262C13.1887 19.0346 13.182 19.0416 13.174 19.0465C13.166 19.0513 13.1569 19.0538 13.1476 19.0538H10.3096C10.2974 19.0538 10.2857 19.0588 10.277 19.0678Z" fill="white"/>
<path d="M5.26484 17.2596C5.27114 17.2064 5.24987 17.1879 5.20101 17.2043C3.79758 17.6762 2.5482 17.4775 1.45288 16.6083C0.535639 15.8808 -0.0317227 14.6409 0.00137344 13.4439C0.0344696 12.2577 0.489147 11.2664 1.36541 10.4701C1.45524 10.3877 1.57226 10.3287 1.65854 10.2464C1.6877 10.2177 1.69164 10.1858 1.67036 10.1506C0.51791 8.2077 0.990711 5.77452 2.837 4.51001C3.59191 3.99306 4.45595 3.7817 5.42914 3.87591C5.46933 3.88001 5.491 3.86116 5.49415 3.81938C5.5564 2.95425 5.83299 2.20628 6.32392 1.57545C8.59337 -1.33944 13.1654 0.0172389 13.4455 3.78497C13.4494 3.83659 13.4758 3.86035 13.5247 3.85625C15.1448 3.72599 16.4025 4.34411 17.2976 5.71062C18.1251 6.97391 18.1144 8.85409 17.2846 10.1075C17.2539 10.1542 17.2614 10.1936 17.3071 10.2255C19.1392 11.4937 19.5671 14.1309 18.1818 15.9484C17.0778 17.3972 15.2989 17.8077 13.6429 17.122C13.594 17.1023 13.5732 17.1195 13.5802 17.1736C13.7292 18.3447 14.2776 19.1214 15.0377 19.941C15.0421 19.946 15.045 19.9521 15.046 19.9588C15.0471 19.9654 15.0462 19.9723 15.0436 19.9784C15.0409 19.9846 15.0366 19.9898 15.0311 19.9934C15.0257 19.997 15.0193 19.9989 15.0128 19.9988L10.3096 20C10.2974 20 10.2857 19.995 10.277 19.986C10.2684 19.977 10.2635 19.9648 10.2635 19.9521V19.1017C10.2635 19.089 10.2684 19.0768 10.277 19.0678C10.2857 19.0588 10.2974 19.0538 10.3096 19.0538H13.1476C13.1569 19.0538 13.166 19.0513 13.174 19.0465C13.182 19.0416 13.1887 19.0346 13.1933 19.0262C13.198 19.0178 13.2005 19.0082 13.2006 18.9983C13.2006 18.9885 13.1983 18.9788 13.1937 18.9702C12.6539 17.9724 12.516 16.7951 12.78 15.4384C12.7918 15.3802 12.819 15.3712 12.8616 15.4114C13.8261 16.3244 14.8615 16.7902 16.1298 16.3478C17.9147 15.726 18.6463 13.5103 17.6203 11.8624C17.1924 11.1754 16.6097 10.8461 15.8863 10.5278C15.8367 10.5065 15.8296 10.4746 15.8651 10.432C16.0542 10.2046 16.2622 9.99572 16.4289 9.75363C18.0683 7.36469 16.0211 4.20033 13.2895 4.86639C13.0405 4.92701 12.7911 4.99951 12.5413 5.0839C12.5312 5.08737 12.5204 5.08806 12.5099 5.0859C12.4995 5.08374 12.4897 5.0788 12.4816 5.07154C12.4734 5.06429 12.4671 5.05496 12.4633 5.04444C12.4595 5.03392 12.4582 5.02254 12.4597 5.01139C12.5133 4.64027 12.5385 4.27284 12.5354 3.90909C12.5235 2.67284 11.6323 1.49926 10.5177 1.12323C8.77658 0.535825 6.883 1.47223 6.47048 3.38559C6.34874 3.94596 6.42202 4.51616 6.50358 5.07161C6.50462 5.07934 6.50373 5.08723 6.50099 5.0945C6.49824 5.10177 6.49375 5.10819 6.48792 5.11313C6.4821 5.11807 6.47516 5.12136 6.46776 5.1227C6.46035 5.12404 6.45274 5.12337 6.44566 5.12076C6.17459 5.01918 5.90233 4.93725 5.6289 4.87499C4.18567 4.55056 2.73653 5.31124 2.18335 6.71093C1.75074 7.80545 1.88352 8.85163 2.58169 9.84948C2.7318 10.0633 2.92565 10.2538 3.09823 10.4492C3.13132 10.4869 3.12541 10.5164 3.0805 10.5377C2.92447 10.6097 2.76293 10.6872 2.59587 10.7699C1.11128 11.506 0.484813 13.2989 1.21411 14.8461C1.88076 16.2605 3.5923 16.929 4.99534 16.2568C5.35388 16.0856 5.69745 15.8591 6.02605 15.5773C6.07018 15.5396 6.09737 15.5498 6.10761 15.608C6.32667 16.841 6.17656 17.9748 5.65727 19.0095C5.65508 19.0142 5.65405 19.0193 5.65428 19.0245C5.65451 19.0296 5.65599 19.0347 5.65858 19.0391C5.66118 19.0435 5.6648 19.0471 5.66911 19.0497C5.67343 19.0523 5.6783 19.0537 5.68327 19.0538H8.18676C8.1993 19.0538 8.21132 19.0486 8.22019 19.0394C8.22905 19.0301 8.23404 19.0176 8.23404 19.0046L8.23522 13.1121C8.23522 13.0908 8.24586 13.0802 8.26713 13.0802L9.10872 13.0839C9.13472 13.0839 9.14773 13.0978 9.14773 13.1257L9.14891 19.9238C9.14891 19.9746 9.12448 20 9.07562 20H3.87717C3.81491 20 3.80349 19.975 3.84289 19.925C3.99261 19.7366 4.14942 19.5474 4.31333 19.3573C4.84759 18.7347 5.16476 18.0354 5.26484 17.2596Z" fill="white"/>
</svg>
