<svg width="18" height="18" viewBox="0 0 18 18" fill="none" xmlns="http://www.w3.org/2000/svg">
<path fill-rule="evenodd" clip-rule="evenodd" d="M2.54405 0.541057C3.52448 0.0415039 4.80793 0.0415039 7.37484 0.0415039H10.6248C13.1917 0.0415039 14.4752 0.0415039 15.4556 0.541057C16.318 0.980477 17.0192 1.68164 17.4586 2.54405C17.9582 3.52448 17.9582 4.80793 17.9582 7.37484V10.6248C17.9582 13.1917 17.9582 14.4752 17.4586 15.4556C17.0192 16.318 16.318 17.0192 15.4556 17.4586C14.4752 17.9582 13.1917 17.9582 10.6248 17.9582H7.37484C4.80793 17.9582 3.52448 17.9582 2.54405 17.4586C1.68164 17.0192 0.980477 16.318 0.541057 15.4556C0.0415039 14.4752 0.0415039 13.1917 0.0415039 10.6248V7.37484C0.0415039 4.80793 0.0415039 3.52448 0.541057 2.54405C0.980477 1.68164 1.68164 0.980477 2.54405 0.541057ZM5.25 4.20833C4.6747 4.20833 4.20833 4.6747 4.20833 5.25C4.20833 5.8253 4.6747 6.29167 5.25 6.29167C5.8253 6.29167 6.29167 5.8253 6.29167 5.25C6.29167 4.6747 5.8253 4.20833 5.25 4.20833ZM5.875 8.16667C5.875 7.82149 5.59518 7.54167 5.25 7.54167C4.90482 7.54167 4.625 7.82149 4.625 8.16667V14C4.625 14.3452 4.90482 14.625 5.25 14.625C5.59518 14.625 5.875 14.3452 5.875 14V8.16667ZM9.20833 10.6667C9.20833 9.63113 10.0478 8.79167 11.0833 8.79167C12.1189 8.79167 12.9583 9.63113 12.9583 10.6667V14C12.9583 14.3452 13.2382 14.625 13.5833 14.625C13.9285 14.625 14.2083 14.3452 14.2083 14V10.6667C14.2083 8.94078 12.8092 7.54167 11.0833 7.54167C9.35744 7.54167 7.95833 8.94078 7.95833 10.6667V14C7.95833 14.3452 8.23816 14.625 8.58333 14.625C8.92851 14.625 9.20833 14.3452 9.20833 14V10.6667Z" fill="white"/>
</svg>
