<svg width="18" height="18" viewBox="0 0 18 18" fill="none" xmlns="http://www.w3.org/2000/svg">
<path fill-rule="evenodd" clip-rule="evenodd" d="M7.37484 0.0415039C4.80793 0.0415039 3.52448 0.0415039 2.54405 0.541057C1.68164 0.980477 0.980477 1.68164 0.541057 2.54405C0.0415039 3.52448 0.0415039 4.80793 0.0415039 7.37484V10.6248C0.0415039 13.1917 0.0415039 14.4752 0.541057 15.4556C0.980477 16.318 1.68164 17.0192 2.54405 17.4586C3.52448 17.9582 4.80793 17.9582 7.37484 17.9582H10.6248C13.1917 17.9582 14.4752 17.9582 15.4556 17.4586C16.318 17.0192 17.0192 16.318 17.4586 15.4556C17.9582 14.4752 17.9582 13.1917 17.9582 10.6248V7.37484C17.9582 4.80793 17.9582 3.52448 17.4586 2.54405C17.0192 1.68164 16.318 0.980477 15.4556 0.541057C14.4752 0.0415039 13.1917 0.0415039 10.6248 0.0415039H7.37484ZM5.0415 8.99984C5.0415 6.81371 6.81371 5.0415 8.99984 5.0415C11.186 5.0415 12.9582 6.81371 12.9582 8.99984C12.9582 11.186 11.186 12.9582 8.99984 12.9582C6.81371 12.9582 5.0415 11.186 5.0415 8.99984ZM14.4165 4.83317C15.1069 4.83317 15.6665 4.27353 15.6665 3.58317C15.6665 2.89281 15.1069 2.33317 14.4165 2.33317C13.7261 2.33317 13.1665 2.89281 13.1665 3.58317C13.1665 4.27353 13.7261 4.83317 14.4165 4.83317Z" fill="white"/>
</svg>
