<svg width="400" height="405" viewBox="0 0 400 405" fill="none" xmlns="http://www.w3.org/2000/svg">
<path d="M111.336 348.852C111.468 347.778 111.022 347.407 109.996 347.737C80.5299 357.25 54.2982 353.245 31.3011 335.722C12.043 321.057 0.130833 296.061 0.825711 271.932C1.52059 248.018 11.0669 228.035 29.4646 211.982C31.3507 210.323 33.8076 209.133 35.6192 207.474C36.2314 206.896 36.3141 206.252 35.8674 205.541C11.6708 166.376 21.5976 117.326 60.3619 91.8346C76.2117 81.4135 94.353 77.1526 114.786 79.0518C115.629 79.1344 116.084 78.7546 116.151 77.9123C117.458 60.4723 123.265 45.394 133.572 32.6773C181.221 -26.0836 277.213 1.26548 283.095 77.2187C283.178 78.2591 283.732 78.738 284.758 78.6555C318.774 76.0296 345.179 88.4902 363.974 116.038C381.346 141.504 381.122 179.406 363.701 204.674C363.056 205.616 363.213 206.408 364.172 207.053C402.639 232.618 411.623 285.78 382.537 322.419C359.358 351.626 322.008 359.9 287.24 346.077C286.214 345.681 285.775 346.028 285.924 347.118C289.051 370.726 300.566 386.382 316.524 402.906C316.616 403.005 316.677 403.13 316.699 403.264C316.721 403.398 316.703 403.535 316.648 403.659C316.592 403.783 316.502 403.888 316.387 403.961C316.272 404.034 316.139 404.072 316.003 404.07L217.255 404.095C216.999 404.095 216.753 403.993 216.571 403.812C216.389 403.631 216.288 403.385 216.288 403.129V385.986C216.288 385.73 216.389 385.484 216.571 385.303C216.753 385.122 216.999 385.02 217.255 385.02H276.841C277.036 385.021 277.227 384.97 277.395 384.872C277.563 384.775 277.703 384.634 277.801 384.464C277.899 384.294 277.951 384.1 277.952 383.902C277.954 383.704 277.904 383.509 277.809 383.335C266.476 363.22 263.581 339.487 269.123 312.138C269.371 310.966 269.942 310.784 270.835 311.593C291.086 330 312.826 339.388 339.455 330.47C376.928 317.935 392.29 273.27 370.749 240.05C361.765 226.202 349.53 219.563 334.342 213.147C333.3 212.717 333.151 212.073 333.896 211.214C337.866 206.631 342.234 202.42 345.733 197.54C380.155 149.382 337.171 85.5918 279.819 99.0187C274.591 100.241 269.355 101.702 264.11 103.403C263.898 103.473 263.671 103.487 263.452 103.444C263.233 103.4 263.028 103.301 262.857 103.154C262.685 103.008 262.553 102.82 262.473 102.608C262.393 102.396 262.367 102.167 262.398 101.942C263.523 94.4605 264.052 87.0534 263.986 79.7207C263.738 54.7993 245.026 31.1414 221.623 23.5609C185.068 11.7196 145.311 30.5964 136.65 69.1675C134.093 80.4639 135.632 91.9584 137.344 103.156C137.366 103.312 137.347 103.471 137.29 103.617C137.232 103.764 137.138 103.893 137.016 103.993C136.894 104.092 136.748 104.159 136.592 104.186C136.437 104.213 136.277 104.199 136.128 104.147C130.437 102.099 124.721 100.447 118.98 99.1921C88.6781 92.6521 58.2524 107.986 46.638 136.203C37.555 158.267 40.3428 179.357 55.0014 199.472C58.1531 203.783 62.2231 207.622 65.8464 211.561C66.5413 212.321 66.4172 212.915 65.4742 213.345C62.1983 214.798 58.8067 216.359 55.2992 218.027C24.1289 232.866 10.9759 269.009 26.288 300.198C40.2849 328.711 76.22 342.188 105.678 328.637C113.206 325.185 120.419 320.619 127.318 314.938C128.245 314.178 128.816 314.384 129.031 315.557C133.63 340.412 130.478 363.269 119.575 384.128C119.529 384.222 119.508 384.325 119.513 384.429C119.518 384.533 119.549 384.635 119.603 384.723C119.658 384.812 119.734 384.886 119.824 384.938C119.915 384.99 120.017 385.018 120.121 385.02H172.684C172.947 385.02 173.2 384.915 173.386 384.73C173.572 384.544 173.677 384.292 173.677 384.029L173.701 265.244C173.701 264.814 173.925 264.6 174.371 264.6L192.041 264.674C192.587 264.674 192.86 264.955 192.86 265.516L192.885 402.559C192.885 403.583 192.372 404.095 191.346 404.095H82.2009C80.8939 404.095 80.654 403.591 81.4812 402.584C84.6247 398.785 87.9171 394.97 91.3584 391.139C102.576 378.587 109.235 364.491 111.336 348.852Z" fill="#93CE41"/>
</svg>
