<svg width="806" height="583" viewBox="0 0 806 583" fill="none" xmlns="http://www.w3.org/2000/svg">
<path d="M215.951 254.645C178.809 254.645 142.584 258.401 105.388 258.401C93.8085 258.401 61.7061 267.987 52.301 256.523C42.8959 245.058 33.4905 215.202 42.8958 202.054C52.3008 188.905 265.126 203.932 376.466 203.932C419.311 203.932 462.444 202.054 505.004 202.054H563.943H592.159C596.524 202.054 600.967 202.295 605.326 202.054C640.781 200.087 677.857 198.297 714.425 198.297C721.213 198.297 774.619 195.256 774.619 201.115V230.227C774.619 238.445 770.856 246.465 770.856 253.705C770.856 261.873 747.55 258.043 741.179 259.862C731.089 262.74 716.84 260.279 706.483 260.279H652.77H592.159C541.31 260.279 490.733 254.645 439.794 254.645H329.858H215.951Z" stroke="#13615E" stroke-width="2" stroke-linecap="round"/>
<path d="M733.241 264.035C733.241 334.908 711.847 404.331 699.278 473.354C694.36 500.362 688.544 540.047 671.167 561.736C658.368 577.711 633.588 576.594 614.737 577.701C590.561 579.121 567.187 581.458 542.839 581.458C489.368 581.458 435.898 581.458 382.428 581.458C335.402 581.458 288.376 581.458 241.35 581.458C215.254 581.458 174.083 579.516 150.121 566.849C143.974 563.6 136.361 549.131 131.728 543.475C105.429 455.893 95.5704 354.964 95.5703 264.035" stroke="#13615E" stroke-width="2" stroke-linecap="round"/>
<path d="M92.3896 197.462C81.9852 179.282 64.2886 143.837 55.7623 124.679C45.5841 101.814 -14.0027 25.9254 4.55642 7.39408C9.26768 2.68964 17.8931 -0.973243 24.2024 2.17683C44.6926 12.4065 55.9664 42.372 66.4209 61.7586C91.1054 107.532 114.478 152.362 143.648 196.052" stroke="#13615E" stroke-width="2" stroke-linecap="round"/>
<path d="M713.259 197.462C723.663 179.282 741.36 143.837 749.886 124.679C760.064 101.814 819.651 25.9254 801.092 7.39408C796.381 2.68964 787.755 -0.973243 781.446 2.17683C760.956 12.4065 749.682 42.372 739.228 61.7586C714.543 107.532 691.171 152.362 662 196.052" stroke="#13615E" stroke-width="2" stroke-linecap="round"/>
</svg>
