<svg width="138" height="46" viewBox="0 0 138 46" fill="none" xmlns="http://www.w3.org/2000/svg">
<path d="M137.5 23C137.5 25.9568 135.703 28.8532 132.268 31.5599C128.839 34.2623 123.846 36.7177 117.632 38.7891C105.209 42.9301 88.015 45.5 69 45.5C49.985 45.5 32.7908 42.9301 20.3677 38.7891C14.1536 36.7177 9.16082 34.2623 5.73185 31.5599C2.29725 28.8532 0.5 25.9568 0.5 23C0.5 20.0432 2.29725 17.1468 5.73185 14.4401C9.16082 11.7377 14.1536 9.28227 20.3677 7.21089C32.7908 3.06986 49.985 0.5 69 0.5C88.015 0.5 105.209 3.06986 117.632 7.21089C123.846 9.28227 128.839 11.7377 132.268 14.4401C135.703 17.1468 137.5 20.0432 137.5 23Z" stroke="black"/>
</svg>
